<svg width="20" height="20" viewBox="0 0 20 20" fill="none" xmlns="http://www.w3.org/2000/svg">
<g clip-path="url(#clip0_8161_8489)">
<path fill-rule="evenodd" clip-rule="evenodd" d="M1.6665 2.49935C1.6665 2.03911 2.0396 1.66602 2.49984 1.66602H17.4998C17.9601 1.66602 18.3332 2.03911 18.3332 2.49935V4.65417C18.3332 5.0962 18.1576 5.52012 17.845 5.83268L12.4998 11.1779V15.8327C12.4998 16.1483 12.3215 16.4369 12.0392 16.578L8.70585 18.2447C8.44753 18.3739 8.14074 18.3601 7.89506 18.2082C7.64938 18.0564 7.49984 17.7882 7.49984 17.4994V11.1779L2.15466 5.83268C1.8421 5.52012 1.6665 5.0962 1.6665 4.65417V2.49935ZM3.33317 3.33268V4.65417L8.92243 10.2434C9.07871 10.3997 9.1665 10.6117 9.1665 10.8327V16.151L10.8332 15.3177V10.8327C10.8332 10.6117 10.921 10.3997 11.0772 10.2434L16.6665 4.65417V3.33268H3.33317Z" fill="#8A8A8A"/>
</g>
<defs>
<clipPath id="clip0_8161_8489">
<rect width="16.6667" height="16.6667" fill="white" transform="translate(1.6665 1.66602)"/>
</clipPath>
</defs>
</svg>
