<svg xmlns="http://www.w3.org/2000/svg" width="521" height="193" fill="none" fill-rule="evenodd" xmlns:v="https://vecta.io/nano"><path d="M373.622 1.303c-8.071.558-15.772 1.376-17.111 1.815s-3.66.808-5.157.818-4.147.38-5.893.824-5.314 1.131-7.932 1.532-5.309 1.019-5.981 1.377-3.171.904-5.553 1.213-4.688.825-5.124 1.145-2.481.818-4.543 1.106-3.944.828-4.183 1.2-2.121.912-4.183 1.2-4.121.806-4.574 1.152-2.238.971-3.966 1.39c-4.169 1.011-10.756 3.095-12.365 3.913-.71.36-2.588.89-4.174 1.177s-3.078.827-3.317 1.199-1.217.681-2.173.683-2.695.487-3.866 1.076-3.312 1.315-4.76 1.614-2.988.802-3.424 1.12-2.176.818-3.866 1.112-3.653.835-4.362 1.201c-1.677.867-11.496 3.509-15.57 4.19-1.745.292-3.53.799-3.966 1.128s-2.221.845-3.966 1.148-3.53.821-3.966 1.151-2.489.837-4.562 1.126-3.768.817-3.768 1.172-1.784.884-3.965 1.173-4.14.798-4.353 1.131-2.051.846-4.084 1.14-4.268.822-4.967 1.175-4.842 1.386-9.205 2.299-9.538 2.111-11.502 2.664a71.71 71.71 0 0 1-7.139 1.549c-1.963.299-3.927.806-4.363 1.128s-2.935.831-5.553 1.135-5.116.825-5.552 1.162c-.774.595-6.583 1.568-18.642 3.119-3.272.421-6.663 1.086-7.536 1.477s-4.263 1.055-7.536 1.473l-22.607 3.224c-3.054.453-9.654 1.217-14.667 1.697-7.029.673-9.166 1.139-9.344 2.036-.289 1.461 8.134 4.035 13.262 4.053 2.125.007 2.937.212 2.041.516-1.391.471-1.397.538-.094 1.02 3.037 1.125 15.291.27 13.324-.929-.423-.257 2.849-.535 7.27-.618s10.537-.543 13.591-1.021c6.033-.945 17.292-2.525 28.557-4.009 3.926-.516 7.496-1.159 7.932-1.427s3.741-.734 7.343-1.036 6.719-.817 6.929-1.144 3.152-.842 6.54-1.146 6.516-.775 6.952-1.047c.827-.516 8.32-1.667 22.776-3.499 4.674-.593 8.862-1.295 9.309-1.561s3.939-.966 7.763-1.555 9.274-1.618 12.11-2.287c6.36-1.499 13.953-3.105 20.228-4.277 2.618-.489 5.117-1.154 5.553-1.477s2.742-.84 5.124-1.149 4.881-.85 5.553-1.202 2.828-.977 4.791-1.389 6.604-1.469 10.313-2.35c13.214-3.141 24.415-5.556 32.126-6.926 2.618-.465 5.474-1.148 6.346-1.518s3.193-.904 5.157-1.187 3.926-.732 4.362-.999 3.114-.874 5.95-1.349c7.013-1.174 13.668-2.411 19.831-3.684 16.745-3.461 39.963-5.792 59.891-6.012 18.756-.207 21.021-.654 21.021-4.14 0-1.304-.893-2.089-3.768-3.313l-6.268-2.697c-1.374-.601-3.049-1.092-3.721-1.092s-1.421-.312-1.666-.693-2.317-.938-4.608-1.236-4.742-.836-5.451-1.194c-1.523-.772-28.322-3.04-34.258-2.9-2.265.053-10.721.554-18.792 1.113zm-8.726 9.519c-10.133 1.055-30.443 5.565-34.211 7.596-.709.383-2.673.936-4.362 1.23s-3.43.785-3.866 1.091-4.184 1.498-8.329 2.649-8.083 2.362-8.752 2.69-2.388.844-3.821 1.148-3.563 1.034-4.733 1.623-2.86 1.072-3.755 1.076-1.965.313-2.38.689-2.36 1.044-4.323 1.482c-8.387 1.875-10.798 2.489-12.295 3.135-1.662.716-8.594 2.733-18.642 5.426-3.272.877-6.498 1.877-7.169 2.224s-2.723.875-4.557 1.173-3.523.834-3.751 1.189-2.375.881-4.774 1.17-4.535.797-4.747 1.129-2.171.841-4.352 1.13-4.158.828-4.395 1.197-2.208.898-4.382 1.177-4.101.74-4.285 1.027c-.365.571 3.864-.011 13.062-1.798l12.675-2.321c3.699-.64 7.269-1.384 7.933-1.652s3.527-.936 6.363-1.484l10.312-2.153 9.122-2.004c2.182-.467 4.534-1.147 5.227-1.512s3.286-.908 5.761-1.206 4.681-.822 4.9-1.164 2.361-.858 4.76-1.148 4.535-.797 4.747-1.129 2.261-.845 4.551-1.138 7.734-1.383 12.097-2.421 9.895-2.248 12.295-2.69 4.72-1.068 5.156-1.391 2.757-.836 5.156-1.141 4.72-.818 5.156-1.141 2.935-.994 5.553-1.491l9.916-1.956 11.899-2.261c3.708-.665 7.278-1.367 7.932-1.561 1.698-.502 20.781-2.65 32.887-3.702 9.744-.847 10.157-.949 7.932-1.975-1.821-.839-7.406-1.121-24.954-1.257-12.434-.096-25.285.104-28.557.444zM18.562 44.203c-.94 1.99-2.633-2.529 1.087.759 2.15 1.9 7.47 7.413 7.956 8.548.642 1.503-12.632.19-10.571.564 2.461.445 8.329-2.294 8.143-.564-.159 1.474 2.758.763 3.934.979 2.237.411 2.862 2.113 2.36 3.373-.247.623 2.041.331 3.148.759 1.651.638-12.165-9.159-14.97-9.106-4.524.086-4.379-.774 0-.759 2.948.01 18.323 7.39 17.33 8.347-.195.189-.533-.266-5.508 0s3.225-1.55 2.352-1.209-5.454 10.88 0 10.631 6.355-8.299 7.09-8.663-3.025-3.035-1.954-3.035c1.355 0-5.059 16.014-5.136 15.098 6.839-12.822 5.298-12.307 9.012-12.822 4.992-.692 9.09 9.643 8.306 10.866-.262.409-.667 4.31-2.361 4.31s.737 5.598-5.946 1.518c-.726 1.133 1.816-2.372 3.461-3.533.868-.612 1.189-1.469.86-2.295-.447-1.122-1.666-1.319-8.197-1.319-7.672 0-7.672 0-12.536-4.781-2.676-2.629-4.986-5.449-5.135-6.263-.166-.91-1.218-1.718-2.726-2.095-1.703-.425-3.954-2.373-7.336-6.348-2.684-3.153 11.591.836-4.88-6.393 0-.363 5.401-.894 12.003-1.181 13.731-.597 12.171-1.118 21.292 7.101 3.26 2.938 6.099 5.176 6.308 4.974s-8.741.047-11.329-2.147-1.859-3.944-3.148-5.312c-2.342-2.486.992-2.276-11.823-2.276s-.099.186-1.087 2.276z" fill="#c87632"/><path d="M493.098 21.341c9.143 4.618 8.989 4.472 6.653 6.265-1.091.838-2.262 1.531-2.604 1.54s-1.947.583-3.569 1.275-6.698 2.258-11.279 3.48l-12.692 3.384c-5.495 1.462-13.28 3.14-19.435 4.191-2.617.447-6.008 1.132-7.535 1.522s-5.454 1.046-8.726 1.456c-8.667 1.086-13.966 2.132-20.228 3.995-5.944 1.767-17.595 7.235-23.347 10.954-3.514 2.274-3.514 2.274 7.933 2.489 26.171.493 50.328-3.06 75.305-11.074 11.838-3.798 15.301-5.16 28.155-11.071 6.283-2.889 18.654-10.3 18.633-11.162-.012-.487-2.522-1.611-10.695-4.788-4.155-1.615-19.753-5.422-21.815-5.324-.218.011 2.143 1.301 5.246 2.868zm-71.879 5.559c-9.817.759-21.061 1.909-24.988 2.554-22.097 3.635-31.287 5.491-48.388 9.776-6.399 1.603-10.777 2.63-20.228 4.745l-17.452 4.146-20.228 4.709c-4.363.945-9.027 2.036-10.364 2.426s-4.728 1.029-7.536 1.421a169.84 169.84 0 0 0-10.261 1.83l-12.692 2.747c-4.145.897-11.819 2.442-17.055 3.433l-11.899 2.301c-18.109 3.805-51.112 8.714-82.498 12.268-13.231 1.499-31.375 1.496-35.697-.006-1.745-.606-3.708-1.109-4.363-1.118s-2.212-.531-3.462-1.159-2.678-1.145-3.173-1.148-1.859-.486-3.029-1.076-3.223-1.303-4.561-1.586-2.433-.832-2.433-1.219-.446-.711-.992-.718-4.026-1.548-7.734-3.422-7.725-3.796-8.924-4.27-2.181-1.171-2.181-1.551-.371-.69-.825-.69c-.939 0-5.78-3.145-6.182-4.016-.146-.315-.633-.574-1.084-.574-1.109 0-9.878-6.702-15.798-12.073-2.652-2.406-5.308-4.642-5.9-4.968-1.429-.786-24.946.256-24.946 1.105 0 .363 2.196 3.24 4.88 6.393 3.382 3.975 5.633 5.923 7.336 6.348 1.509.377 2.561 1.186 2.726 2.095.149.815 2.459 3.634 5.135 6.263 4.864 4.781 4.864 4.781 12.537 4.781 6.531 0 7.75.197 8.197 1.319.754 1.894-1.618 3.271-5.638 3.271-4.284 0-3.943 1 1.569 4.59 4.111 2.678 4.111 2.678 12.726 2.435 4.738-.133 9.491-.564 10.562-.956 2.564-.94 11.137-.919 11.745.029.262.409-.52.956-1.738 1.219s-2.808.63-3.535.818c-2.524.654-30.667 3.344-58.57 5.598C.117 86.116 0 86.145 0 88.547c0 1.978 0 1.978 6.148 1.5l26.772-1.966 18.822-1.587c8.25-.812 9.525-.776 11.249.313 2.945 1.861 17.763 6.399 22.691 6.95 4.378.489 23.842-.938 40.048-2.935l15.865-1.949c3.927-.48 9.103-1.193 11.502-1.584s7.754-1.072 11.899-1.514 8.178-.996 8.962-1.23 4.889-.91 9.122-1.502l14.836-2.224c3.927-.632 9.995-1.49 13.486-1.907s7.595-1.118 9.122-1.558 4.918-1.125 7.536-1.521c6.418-.972 15.869-2.684 20.228-3.664 1.963-.441 6.604-1.392 10.312-2.111 9.812-1.904 36.841-7.907 42.836-9.513 11.314-3.032 29.099-6.376 30.252-5.69.787.47-2.778 4.143-4.021 4.143-.272 0-1.575.947-2.897 2.104s-4.882 4.032-7.911 6.389c-8.103 6.305-18.596 15.819-18.596 16.86 0 .849 2.489.832 12.692-.091l17.253-1.513c8.925-.758 8.925-.758 12.296-4.388 8.786-9.461 14.973-15.317 20.426-19.337 7.543-5.559 17.883-12.265 18.911-12.265.434 0 .907-.298 1.053-.661.464-1.159 15.068-7.571 22.872-10.041 12.902-4.084 37.683-8.248 50.372-8.465 6.346-.109 6.346-.109 1.19-1.134-6.631-1.319-12.282-1.245-34.11.442zm-54.735 64.158c-.654.356-2.922.888-5.04 1.183-3.087.431-4.501 1.171-7.139 3.742-5.642 5.499-6.066 7.77-6.066 32.545 0 21.51 0 21.51 4.165 21.499 8.258-.021 7.54 1.854 7.857-20.523.252-17.841.419-19.856 1.828-22.104 1.699-2.714 5.466-4.794 8.679-4.794 2.372 0 2.356.099 1.152-6.929-.791-4.624-1.125-5.309-2.578-5.289-.917.013-2.204.314-2.858.67zm-34.903 4.582c-1.712.459-2.054 1.103-2.499 4.705-.283 2.295-.462 14.845-.397 27.889.119 23.715.119 23.715 4.482 23.519 8.852-.396 7.933 2.953 7.933-28.889 0-27.909 0-27.909-3.768-27.832-2.073.042-4.66.315-5.751.608zm-44.255 4.472c-4.753.26-5.041.389-6.082 2.722-2.391 5.36-3.462 7.967-4.778 11.629-.756 2.104-1.673 4.514-2.038 5.355s-.905 2.735-1.201 4.208-1.073 3.686-1.726 4.918c-1.39 2.62-4.737 11.123-5.895 14.973-.444 1.472-1.13 3.004-1.526 3.404s-.719 1.208-.719 1.797-.52 2.155-1.154 3.481-1.892 4.251-2.795 6.501c-1.641 4.091-1.641 4.091 2.542 3.606 2.301-.267 5.646-.847 7.435-1.289 3.106-.768 3.288-.98 4.087-4.754.836-3.946 2.696-9.291 3.504-10.071.874-.842 24.095-3.738 25.576-3.19.983.364 1.858 1.933 4.911 8.802 1.407 3.166 1.599 3.297 4.266 2.923 4.772-.671 11.307-1.953 11.653-2.287.301-.291-.387-2.052-3.337-8.541l-2.414-5.355c-.755-1.683-3.101-6.592-5.215-10.907s-3.844-8.001-3.844-8.19-1.034-2.51-2.298-5.158l-4.718-9.98c-2.723-5.812-1.169-5.31-14.234-4.597zm-69.974 7.115c-31.061 2.698-28.161-.8-28.161 33.969 0 31.323 0 31.323 4.76 31.131 2.618-.105 5.92-.585 7.338-1.067 2.578-.875 2.578-.875 2.578-11.78s0-10.904 2.974-11.33c1.637-.234 4.497-.766 6.358-1.182 7.188-1.607 8.159-1.192 13.275 5.68 4.476 6.011 9.489 12.356 10.063 12.734.914.605 12.567-.635 14.773-1.571 1.831-.776 1.831-.776-.444-4.024l-4.806-6.881-5.039-7.043c-2.507-3.409-2.507-3.409.904-6.694 5.1-4.912 6.55-8.79 6.231-16.673-.291-7.197-1.979-11.409-5.624-14.033-2.475-1.783-12.958-2.297-25.18-1.236zm-47.794 4.359c-2.801.17-4.59.63-4.636 1.194-.042.505-.013 7.288.064 15.074.151 15.203-.933 25.993-2.918 29.068-3.235 5.01-9.162 7.567-18.824 8.122-8.635.497-11.81-.722-14.34-5.505-1.45-2.742-1.602-4.71-1.767-22.89-.18-19.891-.18-19.891-8.288-19.691-4.458.11-8.314.522-8.565.915-.596.929-.273 36.516.385 42.467 1.14 10.308 7.137 17.66 16.648 20.409 4.359 1.26 6.753 1.508 11.137 1.153 6.422-.521 16.501-2.413 19.404-3.644 14.458-6.133 17.625-9.714 20.634-23.334.543-2.46 1.28-38.649.874-42.947-.055-.585-1.093-.9-2.668-.812l-7.14.421zm119.396 4.981c-.429.526-1.427 2.678-2.218 4.781s-1.677 4.17-1.971 4.59-.765 1.391-1.049 2.156c-.481 1.299-.08 1.357 6.025.867 3.597-.288 6.848-.799 7.226-1.134.805-.717-1.495-7.076-3.658-10.113-1.618-2.27-3.119-2.666-4.355-1.147zM60.287 120.13c-.654.356-2.938.89-5.074 1.188s-4.456.835-5.156 1.196-3.678 1.706-6.619 2.992c-6.925 3.028-11.055 6.696-14.126 12.547-4.533 8.635-5.581 12.972-5.596 23.159-.014 10.432 1.16 14.903 5.653 21.522 5.857 8.63 15.155 11.305 33.123 9.532 14.536-1.435 23.622-5.186 31.001-12.802 7.698-7.944 10.422-15.504 10.422-28.915 0-9.065-1.624-17.185-4.148-20.736-3.164-4.453-9.511-8.846-12.781-8.846-.672 0-1.442-.344-1.712-.765-.6-.936-23.277-1.002-24.988-.072zm157.065.967c-14.006 1.584-13.059 1.059-13.323 7.385-.235 5.601-.235 5.601 6.346 5.101 3.619-.276 7.651-.793 8.96-1.15s4.166-.867 6.349-1.131c5.464-.663 7.85-2.53 7.85-6.144 0-4.975-2.521-5.607-16.182-4.061zM67.361 137.349c-.182.174-3.011.675-6.287 1.114-12.051 1.614-16.217 5.355-18.34 16.469-1.41 7.379.791 16.004 4.744 18.593 2.952 1.933 17.422 1.836 24.709-.165 6.75-1.853 9.127-3.63 11.6-8.673 1.718-3.504 2.045-5.262 2.064-11.126.03-9.025-1.448-12.372-6.525-14.776-3.157-1.495-10.929-2.427-11.965-1.436z" fill="#13587b"/></svg>